<?xml version="1.0" encoding="UTF-8"?>
<svg version="1.1" xmlns="http://www.w3.org/2000/svg" width="1024" height="1024">
<path d="M0 0 C1.28737061 0.00008057 2.57474121 0.00016113 3.90112305 0.00024414 C36.56702839 0.19202839 36.56702839 0.19202839 39.5625 3.1875 C41.93748834 3.49268298 44.30622099 3.75509521 46.6875 4 C54.9331872 4.93482004 62.57721717 6.91490277 70.5625 9.1875 C72.47732336 9.6534743 74.39393699 10.11217063 76.3125 10.5625 C81.70330265 11.9028762 87.00758387 13.48241807 92.3125 15.125 C93.10495117 15.36589355 93.89740234 15.60678711 94.71386719 15.85498047 C99.30130615 17.29995653 103.52092761 19.03652352 107.78466797 21.26147461 C110.06182751 22.44758641 112.3979954 23.4716991 114.75 24.5 C121.19935674 27.40800871 127.36219791 30.78831119 133.5625 34.1875 C134.52542969 34.69410156 135.48835938 35.20070312 136.48046875 35.72265625 C145.12829284 40.29661116 152.89872291 45.85551908 160.66796875 51.7734375 C162.5993302 53.21498976 164.57475207 54.57515573 166.5625 55.9375 C167.5525 56.68 168.5425 57.4225 169.5625 58.1875 C169.5625 58.8475 169.5625 59.5075 169.5625 60.1875 C170.6453125 60.55875 170.6453125 60.55875 171.75 60.9375 C176.9002388 63.22649502 180.77299637 67.07318178 184.5625 71.1875 C184.5625 71.8475 184.5625 72.5075 184.5625 73.1875 C185.5525 73.5175 186.5425 73.8475 187.5625 74.1875 C187.5625 74.8475 187.5625 75.5075 187.5625 76.1875 C188.5525 76.5175 189.5425 76.8475 190.5625 77.1875 C190.5625 77.8475 190.5625 78.5075 190.5625 79.1875 C191.2225 79.1875 191.8825 79.1875 192.5625 79.1875 C192.5625 79.8475 192.5625 80.5075 192.5625 81.1875 C193.5525 81.5175 194.5425 81.8475 195.5625 82.1875 C195.5625 82.8475 195.5625 83.5075 195.5625 84.1875 C196.5525 84.5175 197.5425 84.8475 198.5625 85.1875 C198.5625 85.8475 198.5625 86.5075 198.5625 87.1875 C199.2225 87.1875 199.8825 87.1875 200.5625 87.1875 C200.5625 87.8475 200.5625 88.5075 200.5625 89.1875 C201.5525 89.5175 202.5425 89.8475 203.5625 90.1875 C203.5625 90.8475 203.5625 91.5075 203.5625 92.1875 C204.2225 92.1875 204.8825 92.1875 205.5625 92.1875 C207.0703125 93.8671875 207.0703125 93.8671875 208.6875 96.0625 C209.22632813 96.78179687 209.76515625 97.50109375 210.3203125 98.2421875 C211.5625 100.1875 211.5625 100.1875 211.5625 102.1875 C212.2225 102.1875 212.8825 102.1875 213.5625 102.1875 C213.8925 103.5075 214.2225 104.8275 214.5625 106.1875 C215.2225 106.1875 215.8825 106.1875 216.5625 106.1875 C216.5625 106.8475 216.5625 107.5075 216.5625 108.1875 C217.2225 108.1875 217.8825 108.1875 218.5625 108.1875 C218.8925 109.8375 219.2225 111.4875 219.5625 113.1875 C220.5525 113.5175 221.5425 113.8475 222.5625 114.1875 C231.019782 125.21408286 237.58012066 138.69438302 243.5625 151.1875 C244.00464844 152.10144531 244.44679688 153.01539063 244.90234375 153.95703125 C247.5772525 159.64019605 249.68109236 165.35466795 251.58984375 171.3359375 C252.48576199 173.96252513 253.51704192 176.42382249 254.6875 178.9375 C256.2430711 182.29680723 257.2451571 185.51156674 258.03393555 189.12158203 C258.58898375 191.47800903 258.58898375 191.47800903 259.9921875 194.75390625 C261.89415934 199.73844378 262.74821117 204.81619975 263.625 210.0625 C263.94834547 211.93504684 264.27255956 213.8074439 264.59765625 215.6796875 C264.75451904 216.59516357 264.91138184 217.51063965 265.07299805 218.45385742 C265.55402229 221.14015593 266.0929769 223.80868064 266.6484375 226.48046875 C267.40418582 230.19847072 267.88829144 233.83262676 268.125 237.625 C268.32657109 240.78020457 268.5586614 243.17598419 269.5625 246.1875 C269.65533275 247.93027262 269.69041831 249.67638815 269.69189453 251.42163086 C269.69662277 253.02360573 269.69662277 253.02360573 269.70144653 254.65794373 C269.6994223 255.81109573 269.69739807 256.96424774 269.6953125 258.15234375 C269.69626923 259.33719864 269.69722595 260.52205353 269.69821167 261.74281311 C269.69889264 264.25033623 269.69704414 266.75786112 269.69287109 269.26538086 C269.68752644 273.10599732 269.6928165 276.94649658 269.69921875 280.78710938 C269.69855786 283.22135443 269.69727648 285.6555994 269.6953125 288.08984375 C269.69733673 289.24097153 269.69936096 290.3920993 269.70144653 291.57810974 C269.69829437 292.64924515 269.69514221 293.72038055 269.69189453 294.82397461 C269.69070114 296.23603432 269.69070114 296.23603432 269.68948364 297.67662048 C269.57179774 300.00365346 269.19180421 301.95458636 268.5625 304.1875 C268.38977458 305.69352369 268.24860848 307.20337668 268.1328125 308.71484375 C267.09381184 321.34215735 265.48910595 333.00426503 261.24609375 345.0078125 C260.49396609 347.40602526 260.01694889 349.77869943 259.5625 352.25 C258.46852776 358.09054598 256.45197258 363.23066033 254 368.625 C252.87630227 371.40981611 252.26883159 373.49029637 251.75 376.375 C250.73068807 381.42836845 248.4983447 385.6640898 246.09765625 390.1953125 C244.51728643 393.17551361 244.51728643 393.17551361 243.2578125 396.33984375 C241.03241803 401.63597704 238.14930303 406.60249852 235.375 411.625 C234.81619141 412.64271484 234.25738281 413.66042969 233.68164062 414.70898438 C232.31145897 417.20341765 230.9383466 419.69618824 229.5625 422.1875 C228.9025 422.1875 228.2425 422.1875 227.5625 422.1875 C227.41361328 423.01314453 227.41361328 423.01314453 227.26171875 423.85546875 C224.99198062 431.42548922 218.95521998 438.54395583 213.5625 444.1875 C212.9025 444.1875 212.2425 444.1875 211.5625 444.1875 C211.29566406 444.76113281 211.02882813 445.33476563 210.75390625 445.92578125 C207.02735351 453.00012236 201.23032328 458.6725558 195.5546875 464.1953125 C193.45917875 466.21170137 193.45917875 466.21170137 191.5 468.8125 C188.60658328 472.35926888 185.22325019 475.43797551 181.5625 478.1875 C180.9025 478.1875 180.2425 478.1875 179.5625 478.1875 C179.30073975 478.7858667 179.03897949 479.3842334 178.76928711 480.00073242 C177.48793593 482.32261438 176.30006276 483.51364592 174.25390625 485.17578125 C173.59430908 485.71420654 172.93471191 486.25263184 172.25512695 486.80737305 C171.55218506 487.36593994 170.84924316 487.92450684 170.125 488.5 C169.40723389 489.07596924 168.68946777 489.65193848 167.94995117 490.24536133 C160.98126254 495.76843846 153.95245931 501.04312804 145.5625 504.1875 C145.5625 504.8475 145.5625 505.5075 145.5625 506.1875 C109.43066272 526.01869551 109.43066272 526.01869551 96.05419922 530.33325195 C93.64111455 531.16054798 91.3130836 532.10012236 88.9609375 533.0859375 C83.5702494 535.25704174 78.10824005 536.87035023 72.5 538.375 C71.1068457 538.76461914 71.1068457 538.76461914 69.68554688 539.16210938 C64.60296801 540.54243079 59.73762313 541.46529361 54.49560547 541.93505859 C51.9749502 542.26422727 49.87114393 543.14840807 47.5625 544.1875 C41.25749133 545.85359038 34.82094891 546.39088178 28.328125 546.73828125 C27.54562881 546.78060883 26.76313263 546.8229364 25.95692444 546.86654663 C18.08115249 547.26056842 10.21468173 547.33937013 2.33032227 547.31787109 C-0.0031582 547.31249272 -2.336447 547.31787314 -4.66992188 547.32421875 C-12.42665435 547.32807828 -20.15687137 547.17589365 -27.90234375 546.7421875 C-28.61685196 546.70344513 -29.33136017 546.66470276 -30.06752014 546.62478638 C-33.06599111 546.43757434 -35.57162737 546.14279088 -38.4375 545.1875 C-40.72601285 544.87204084 -43.01839915 544.58435811 -45.3125 544.3125 C-52.48615504 543.41426996 -59.41591397 541.91259086 -66.4375 540.1875 C-68.73626612 539.68626528 -71.03672395 539.19561428 -73.33984375 538.71484375 C-76.09437062 538.02236493 -78.74954451 537.10377162 -81.4375 536.1875 C-82.38109375 535.88070312 -83.3246875 535.57390625 -84.296875 535.2578125 C-93.52985598 532.23837818 -102.29630194 528.84445963 -110.9375 524.40234375 C-113.40105689 523.20520907 -115.87521648 522.21485989 -118.4375 521.25 C-122.93241034 519.50822225 -126.85921647 517.23488832 -130.94140625 514.6875 C-133.36997126 513.22808065 -135.82201364 511.97607876 -138.375 510.75 C-143.96562176 508.01246184 -149.46216154 504.94265089 -154.4375 501.1875 C-154.4375 500.5275 -154.4375 499.8675 -154.4375 499.1875 C-154.98921875 498.9296875 -155.5409375 498.671875 -156.109375 498.40625 C-158.78064175 497.00786875 -161.20601909 495.39986695 -163.6875 493.6875 C-164.57953125 493.0790625 -165.4715625 492.470625 -166.390625 491.84375 C-167.40382813 491.02390625 -167.40382813 491.02390625 -168.4375 490.1875 C-168.4375 489.5275 -168.4375 488.8675 -168.4375 488.1875 C-169.14261719 487.9503125 -169.84773438 487.713125 -170.57421875 487.46875 C-173.94036868 485.96247827 -176.40733173 484.03165483 -179.25 481.6875 C-180.22582031 480.8934375 -181.20164062 480.099375 -182.20703125 479.28125 C-182.94308594 478.5903125 -183.67914063 477.899375 -184.4375 477.1875 C-184.4375 476.5275 -184.4375 475.8675 -184.4375 475.1875 C-184.97375 474.960625 -185.51 474.73375 -186.0625 474.5 C-192.40729023 470.99366856 -196.42126072 465.9310475 -200.88671875 460.33984375 C-203.14010304 457.52732905 -205.47903688 454.7983288 -207.84228516 452.07788086 C-216.93063174 441.60992384 -225.212754 431.20398905 -231.84375 418.98828125 C-233.2908697 416.15755854 -233.2908697 416.15755854 -235.4375 414.1875 C-235.4375 413.1975 -235.4375 412.2075 -235.4375 411.1875 C-236.0975 411.1875 -236.7575 411.1875 -237.4375 411.1875 C-240.4375 404.6875 -240.4375 404.6875 -240.4375 400.1875 C-241.0975 400.1875 -241.7575 400.1875 -242.4375 400.1875 C-246.04955023 393.18682532 -249.38974293 386.15235342 -252.3515625 378.8515625 C-253.18848296 376.79839791 -254.08252126 374.76845323 -255 372.75 C-257.18177974 367.34298065 -258.76485021 361.7692639 -260.4375 356.1875 C-261.14482254 353.91635162 -261.85313048 351.64550986 -262.5625 349.375 C-264.96012191 341.53590023 -266.68181217 333.99778646 -267.8671875 325.87890625 C-268.2734926 323.24905476 -268.710014 320.64229582 -269.1953125 318.02734375 C-269.3281665 317.30732178 -269.46102051 316.5872998 -269.59790039 315.84545898 C-269.8546344 314.46763756 -270.11634079 313.09072714 -270.38452148 311.71508789 C-272.4757805 300.4128903 -272.60112757 288.9625306 -272.56787109 277.50439453 C-272.56252296 275.32186893 -272.56784715 273.13955058 -272.57421875 270.95703125 C-272.58722027 246.63666081 -272.58722027 246.63666081 -270.4375 240.1875 C-270.07596236 237.52115988 -269.74187377 234.86028216 -269.4375 232.1875 C-268.57263514 224.59290541 -268.57263514 224.59290541 -267.4375 221.1875 C-267.13263559 218.06263984 -266.92908784 214.93721889 -266.71875 211.8046875 C-266.4375 209.1875 -266.4375 209.1875 -265.4375 208.1875 C-265.13347898 206.61020283 -264.87046059 205.02496472 -264.625 203.4375 C-263.47358811 196.82117794 -261.52133658 190.56158836 -259.4375 184.1875 C-259.20160156 183.42953125 -258.96570313 182.6715625 -258.72265625 181.890625 C-249.21676997 151.96676997 -249.21676997 151.96676997 -241.4375 144.1875 C-240.73461967 142.51894134 -240.03335116 140.84967053 -239.34326172 139.17578125 C-237.73434663 135.64397412 -235.59911528 132.44377987 -233.5 129.1875 C-230.34646506 124.25153227 -227.32028768 119.28685877 -224.4375 114.1875 C-222.64749673 111.33468229 -221.01290273 108.74943586 -218.6015625 106.39453125 C-216.06289649 103.80545851 -213.96167619 100.97088906 -211.8125 98.0625 C-207.1729151 91.90075528 -202.01826419 86.51501943 -196.4375 81.1875 C-194.0262508 78.79485611 -191.6328641 76.38920023 -189.26953125 73.94921875 C-188.26986328 72.92248047 -188.26986328 72.92248047 -187.25 71.875 C-186.57582031 71.17761719 -185.90164063 70.48023438 -185.20703125 69.76171875 C-183.4375 68.1875 -183.4375 68.1875 -181.4375 68.1875 C-181.4375 67.5275 -181.4375 66.8675 -181.4375 66.1875 C-179.7578125 64.6796875 -179.7578125 64.6796875 -177.5625 63.0625 C-176.84320313 62.52367187 -176.12390625 61.98484375 -175.3828125 61.4296875 C-173.4375 60.1875 -173.4375 60.1875 -171.4375 60.1875 C-171.1075 59.1975 -170.7775 58.2075 -170.4375 57.1875 C-168.66015625 55.80078125 -168.66015625 55.80078125 -166.5 54.5 C-165.78972656 54.06300781 -165.07945312 53.62601563 -164.34765625 53.17578125 C-162.4375 52.1875 -162.4375 52.1875 -160.4375 52.1875 C-160.4375 51.5275 -160.4375 50.8675 -160.4375 50.1875 C-159.03564453 49.04589844 -159.03564453 49.04589844 -157.0703125 47.796875 C-156.35520508 47.33788818 -155.64009766 46.87890137 -154.90332031 46.40600586 C-154.13084961 45.92139893 -153.35837891 45.43679199 -152.5625 44.9375 C-151.38059082 44.18835327 -151.38059082 44.18835327 -150.17480469 43.42407227 C-148.61444953 42.43767964 -147.05199674 41.4545962 -145.48730469 40.47509766 C-143.92210488 39.49190759 -142.36849023 38.49025034 -140.8203125 37.48046875 C-132.60587874 32.25994033 -123.5920976 28.38006439 -114.78369141 24.28271484 C-112.92670924 23.41586552 -111.07719147 22.53302756 -109.23046875 21.64453125 C-99.06278287 16.81839463 -88.27170331 13.19485893 -77.4375 10.1875 C-76.60347656 9.94128906 -75.76945313 9.69507813 -74.91015625 9.44140625 C-63.24383215 6.09466498 -51.31208382 4.23825235 -39.3125 2.5625 C-38.44326904 2.43939453 -37.57403809 2.31628906 -36.6784668 2.18945312 C-24.48447168 0.54649184 -12.2966372 -0.00729482 0 0 Z " fill="#C1DDD6" transform="translate(510.4375,129.8125)"/>
<path d="M0 0 C1.29486328 0.00902344 2.58972656 0.01804688 3.92382812 0.02734375 C7.09524771 0.05074906 10.26627373 0.08353772 13.4375 0.125 C13.45208252 0.77984375 13.46666504 1.4346875 13.48168945 2.109375 C13.55678043 5.11513673 13.65323671 8.11986097 13.75 11.125 C13.77255859 12.15496094 13.79511719 13.18492187 13.81835938 14.24609375 C14.06315214 21.23381461 14.49293881 27.59821875 19.15625 33.18359375 C20.03796875 33.86615234 20.03796875 33.86615234 20.9375 34.5625 C21.5253125 35.03558594 22.113125 35.50867188 22.71875 35.99609375 C26.64913347 38.57764107 30.89910553 38.69128808 35.4375 38.125 C40.11933789 36.71960201 43.37175662 34.82795442 45.875 30.5625 C50.84322161 19.63241246 48.73933673 16.8809185 49.4375 0.125 C89.3675 0.125 129.2975 0.125 170.4375 0.125 C170.7675 8.045 171.0975 15.965 171.4375 24.125 C174.17812641 30.51979496 175.79383183 34.11139391 181.8125 37.4375 C188.12813114 39.09159387 193.76673902 38.21364977 199.4375 35.125 C206.11152236 28.6266098 205.81534153 20.49323077 206.0625 11.75 C206.10117187 10.63238281 206.13984375 9.51476562 206.1796875 8.36328125 C206.27356555 5.61734839 206.35924911 2.87141524 206.4375 0.125 C243.27715383 -0.90415118 243.27715383 -0.90415118 258.125 12.5625 C258.888125 13.408125 259.65125 14.25375 260.4375 15.125 C260.91832031 15.61355469 261.39914062 16.10210937 261.89453125 16.60546875 C271.78556487 27.14755775 273.76216765 40.52080031 273.66113281 54.43041992 C273.66154068 55.51303604 273.66194855 56.59565216 273.66236877 57.71107483 C273.6625652 60.04414878 273.65856882 62.37722619 273.65076447 64.71028709 C273.64048593 68.40546602 273.64595689 72.10031045 273.65618896 75.79548645 C273.68408144 86.29527837 273.69657826 96.79487694 273.66748047 107.29467773 C273.65076302 113.73195947 273.66304149 120.16863818 273.69393158 126.60585976 C273.70003436 129.05343687 273.6951702 131.50106719 273.67905426 133.94859886 C273.65745962 137.36899688 273.6727415 140.78742037 273.69628906 144.20776367 C273.68092606 145.21416901 273.66556305 146.22057434 273.6497345 147.25747681 C273.72318582 152.25788689 274.06772223 155.27915694 277.42132568 159.11982727 C277.95991085 159.63619908 278.49849602 160.1525709 279.05340195 160.68459034 C281.32077679 163.04421264 281.44646537 165.24379121 281.6875 168.4375 C281.41196422 172.50165281 280.57707957 174.68638998 278.4375 178.125 C277.7516835 178.67572678 277.065867 179.22645355 276.35926819 179.79386902 C273.64108677 183.09106009 273.88725825 186.15025439 273.93920898 190.2355957 C273.93369019 191.05089249 273.92817139 191.86618927 273.92248535 192.70619202 C273.91316503 194.47620042 273.91306048 196.24627589 273.92107964 198.01629066 C273.93373083 200.83128178 273.92239523 203.64529494 273.90504456 206.46025085 C273.87830418 211.43744645 273.87274911 216.41440295 273.87414551 221.3916626 C273.87636917 229.31789444 273.86182915 237.24382575 273.81855965 245.16994286 C273.80883936 247.91882446 273.81738358 250.66722135 273.82725525 253.41609192 C273.80638843 271.51757101 271.66710696 288.45692789 258.55859375 302.16015625 C247.5355011 312.3712347 234.21780735 315.2751074 219.57823181 315.27217102 C218.58997439 315.27584771 217.60171698 315.2795244 216.58351237 315.2833125 C213.27433823 315.29431926 209.96519553 315.29818808 206.65600586 315.30200195 C204.28215435 315.30826888 201.90830381 315.31491589 199.53445435 315.32191467 C192.41336463 315.34111601 185.29227439 315.35173889 178.17116603 315.36064246 C174.81217965 315.36503297 171.45319483 315.37039777 168.09420967 315.37563133 C156.9189674 315.39263831 145.74372608 315.40713083 134.56847286 315.41438007 C131.6717065 315.41628975 128.77494016 315.41821012 125.87817383 315.42016602 C124.79829931 315.42089163 124.79829931 315.42089163 123.69660915 315.4216319 C112.04334324 315.4299262 100.39018018 315.45525532 88.73695915 315.48774669 C76.7551829 315.52088004 64.77345881 315.53883446 52.79163653 315.54202431 C46.07142222 315.54418354 39.35138082 315.55329376 32.63120842 315.57848549 C26.30528996 315.60181659 19.97964072 315.60597897 13.65369034 315.59572411 C11.33866669 315.59522986 9.02362956 315.60151712 6.70864677 315.61528015 C-11.08194851 315.71508639 -25.93585458 314.62127712 -39.8125 302.09375 C-49.76844603 291.68526097 -53.87862798 279.29813675 -53.82992554 265.17034912 C-53.83445665 264.1960115 -53.83898776 263.22167387 -53.84365618 262.21781087 C-53.85627049 258.96774955 -53.85468172 255.71785645 -53.85302734 252.46777344 C-53.85901445 250.1314116 -53.86582042 247.79505173 -53.87338257 245.45869446 C-53.89103141 239.1217771 -53.89573749 232.78491377 -53.89701414 226.44797421 C-53.89867591 221.82047539 -53.90447804 217.19298854 -53.9106871 212.56549396 C-53.927285 200.11328876 -53.93477311 187.66111211 -53.93334763 175.20889625 C-53.93326772 174.50268021 -53.9331878 173.79646418 -53.93310547 173.06884766 C-53.93302371 172.36176246 -53.93294195 171.65467727 -53.93285771 170.92616525 C-53.9320452 159.47280593 -53.95117693 148.01957824 -53.9793822 136.56625697 C-54.0081604 124.78668714 -54.02191978 113.0071814 -54.02019465 101.22757554 C-54.01953244 94.6220219 -54.02534342 88.01658954 -54.04655075 81.41106415 C-54.06596045 75.1959127 -54.06603861 68.98105201 -54.05151749 62.76589012 C-54.04943169 60.49076346 -54.05411649 58.21561847 -54.0662384 55.94052315 C-54.14597947 39.93168466 -53.82016582 27.53238488 -42.5625 15.125 C-42.03914063 14.49851562 -41.51578125 13.87203125 -40.9765625 13.2265625 C-30.08389068 1.05865105 -15.28228457 -0.20324266 0 0 Z " fill="#FEF9F2" transform="translate(399.5625,252.875)"/>
<path d="M0 0 C7.9991953 4.80040705 14.41594635 12.10655577 20.9609375 18.66015625 C22.20002894 19.89535447 23.43934142 21.130331 24.67886353 22.36509705 C27.26245897 24.94126803 29.8421939 27.52123104 32.41943359 30.10375977 C35.71962722 33.4097733 39.03110946 36.70422014 42.34575462 39.99573612 C44.9023154 42.53756632 47.45191716 45.0862882 49.99956131 47.63705254 C51.21802809 48.85500676 52.43885315 50.07060653 53.6620903 51.28376961 C55.36841987 52.97775203 57.06492126 54.68101564 58.75927734 56.38696289 C59.26315979 56.8832016 59.76704224 57.37944031 60.28619385 57.89071655 C64.17599907 61.83953011 65.81250424 64.93754664 66.3125 70.4375 C65.72018093 77.18993737 62.10618889 81.33816129 57.44628906 85.95776367 C56.89138794 86.51952805 56.33648682 87.08129242 55.76477051 87.66007996 C53.9393046 89.50375704 52.10306173 91.33622726 50.265625 93.16796875 C48.98594187 94.45221626 47.70663033 95.73683414 46.42767334 97.02180481 C43.74943227 99.70896577 41.06560602 102.39039259 38.37792969 105.06811523 C34.94188018 108.49267464 31.52194262 111.93283132 28.10626602 115.37769604 C25.46925299 118.03309313 22.82294987 120.67907729 20.17388153 123.32244301 C18.90938502 124.58678659 17.64797118 125.85422133 16.38977814 127.12483788 C14.62641227 128.90315353 12.8506702 130.66814821 11.07128906 132.43041992 C10.55882629 132.95255066 10.04636353 133.4746814 9.51837158 134.01263428 C5.02289089 138.4184972 0.77810099 140.65273738 -5.5 141.4375 C-9.70932607 140.91133424 -12.8332356 139.79835369 -16 137 C-18.65009059 133.40678894 -19.83028171 129.93345062 -20.625 125.5625 C-18.7679076 114.97707332 -8.51370348 107.2526332 -1.125 100.125 C1.17265522 97.90705418 3.46019613 95.6793577 5.7421875 93.4453125 C6.27020966 92.94218536 6.79823181 92.43905823 7.34225464 91.92068481 C8.61916738 90.67007096 9.81737834 89.34012954 11 88 C11 87.01 11 86.02 11 85 C9.97349335 84.99635437 8.94698669 84.99270874 7.88937378 84.98895264 C-1.79216912 84.95198534 -11.47339447 84.89419367 -21.15469551 84.81609726 C-26.13178944 84.77661542 -31.10870626 84.74443037 -36.0859375 84.72900391 C-40.89073624 84.71384203 -45.69504808 84.67940471 -50.49962997 84.63169098 C-52.33116292 84.61687236 -54.16276537 84.60895871 -55.99435806 84.60811615 C-58.56333359 84.60574616 -61.13096389 84.57866509 -63.69970703 84.54589844 C-64.45424667 84.5509288 -65.20878632 84.55595917 -65.9861908 84.56114197 C-71.11763325 84.46010816 -74.05052743 83.24334983 -78 80 C-81.2937473 75.27896221 -81.91296574 70.59818552 -81 65 C-78.34641502 59.88237182 -75.46882174 56.82294058 -70 55 C-67.3682664 54.90889579 -64.76358818 54.87395964 -62.13208008 54.88647461 C-61.33184921 54.88632858 -60.53161835 54.88618256 -59.70713806 54.8860321 C-57.06124158 54.88672895 -54.41541544 54.89451071 -51.76953125 54.90234375 C-49.93535907 54.90420874 -48.1011864 54.90563226 -46.26701355 54.90663147 C-41.43863551 54.91045028 -36.61028754 54.92027516 -31.78192139 54.93133545 C-26.85526944 54.94156323 -21.92861263 54.94613202 -17.00195312 54.95117188 C-7.33462221 54.96189797 2.3326864 54.97896679 12 55 C10.29692711 52.02676211 8.67334681 49.42281684 6.21264648 47.03320312 C5.67876816 46.50915894 5.14488983 45.98511475 4.59483337 45.44519043 C4.0259993 44.89609009 3.45716522 44.34698975 2.87109375 43.78125 C1.6593905 42.58996041 0.44780552 41.39855052 -0.76367188 40.20703125 C-2.66605802 38.34817741 -4.57085743 36.49187794 -6.47827148 34.63818359 C-8.32662016 32.8381811 -10.16561052 31.02900976 -12.00390625 29.21875 C-12.57476456 28.66964966 -13.14562286 28.12054932 -13.73377991 27.55480957 C-18.14495946 23.19916788 -19.79148555 20.18940175 -20.375 14.0625 C-20.24485602 9.74334682 -18.84834139 7.2980795 -16 4 C-11.30890395 -0.244325 -6.12509702 -1.61369412 0 0 Z " fill="#FB907A" transform="translate(615,351)"/>
<path d="M0 0 C1.28737061 0.00008057 2.57474121 0.00016113 3.90112305 0.00024414 C36.56702839 0.19202839 36.56702839 0.19202839 39.5625 3.1875 C41.93748834 3.49268298 44.30622099 3.75509521 46.6875 4 C54.9331872 4.93482004 62.57721717 6.91490277 70.5625 9.1875 C72.47732336 9.6534743 74.39393699 10.11217063 76.3125 10.5625 C81.70330265 11.9028762 87.00758387 13.48241807 92.3125 15.125 C93.10495117 15.36589355 93.89740234 15.60678711 94.71386719 15.85498047 C99.30130615 17.29995653 103.52092761 19.03652352 107.78466797 21.26147461 C110.06182751 22.44758641 112.3979954 23.4716991 114.75 24.5 C121.19935674 27.40800871 127.36219791 30.78831119 133.5625 34.1875 C134.52542969 34.69410156 135.48835938 35.20070312 136.48046875 35.72265625 C145.12829284 40.29661116 152.89872291 45.85551908 160.66796875 51.7734375 C162.5993302 53.21498976 164.57475207 54.57515573 166.5625 55.9375 C167.5525 56.68 168.5425 57.4225 169.5625 58.1875 C169.5625 58.8475 169.5625 59.5075 169.5625 60.1875 C170.6453125 60.55875 170.6453125 60.55875 171.75 60.9375 C176.9002388 63.22649502 180.77299637 67.07318178 184.5625 71.1875 C184.5625 71.8475 184.5625 72.5075 184.5625 73.1875 C185.5525 73.5175 186.5425 73.8475 187.5625 74.1875 C187.5625 74.8475 187.5625 75.5075 187.5625 76.1875 C188.5525 76.5175 189.5425 76.8475 190.5625 77.1875 C190.5625 77.8475 190.5625 78.5075 190.5625 79.1875 C191.2225 79.1875 191.8825 79.1875 192.5625 79.1875 C192.5625 79.8475 192.5625 80.5075 192.5625 81.1875 C193.5525 81.5175 194.5425 81.8475 195.5625 82.1875 C195.5625 82.8475 195.5625 83.5075 195.5625 84.1875 C196.5525 84.5175 197.5425 84.8475 198.5625 85.1875 C198.5625 85.8475 198.5625 86.5075 198.5625 87.1875 C199.2225 87.1875 199.8825 87.1875 200.5625 87.1875 C200.5625 87.8475 200.5625 88.5075 200.5625 89.1875 C201.5525 89.5175 202.5425 89.8475 203.5625 90.1875 C203.5625 90.8475 203.5625 91.5075 203.5625 92.1875 C204.2225 92.1875 204.8825 92.1875 205.5625 92.1875 C207.0703125 93.8671875 207.0703125 93.8671875 208.6875 96.0625 C209.22632813 96.78179687 209.76515625 97.50109375 210.3203125 98.2421875 C211.5625 100.1875 211.5625 100.1875 211.5625 102.1875 C212.2225 102.1875 212.8825 102.1875 213.5625 102.1875 C213.8925 103.5075 214.2225 104.8275 214.5625 106.1875 C215.2225 106.1875 215.8825 106.1875 216.5625 106.1875 C216.5625 106.8475 216.5625 107.5075 216.5625 108.1875 C217.2225 108.1875 217.8825 108.1875 218.5625 108.1875 C218.8925 109.8375 219.2225 111.4875 219.5625 113.1875 C220.5525 113.5175 221.5425 113.8475 222.5625 114.1875 C231.019782 125.21408286 237.58012066 138.69438302 243.5625 151.1875 C244.00464844 152.10144531 244.44679688 153.01539063 244.90234375 153.95703125 C247.5772525 159.64019605 249.68109236 165.35466795 251.58984375 171.3359375 C252.48576199 173.96252513 253.51704192 176.42382249 254.6875 178.9375 C256.2430711 182.29680723 257.2451571 185.51156674 258.03393555 189.12158203 C258.58898375 191.47800903 258.58898375 191.47800903 259.9921875 194.75390625 C261.89415934 199.73844378 262.74821117 204.81619975 263.625 210.0625 C263.94834547 211.93504684 264.27255956 213.8074439 264.59765625 215.6796875 C264.75451904 216.59516357 264.91138184 217.51063965 265.07299805 218.45385742 C265.55402229 221.14015593 266.0929769 223.80868064 266.6484375 226.48046875 C267.40418582 230.19847072 267.88829144 233.83262676 268.125 237.625 C268.32657109 240.78020457 268.5586614 243.17598419 269.5625 246.1875 C269.65533275 247.93027262 269.69041831 249.67638815 269.69189453 251.42163086 C269.69662277 253.02360573 269.69662277 253.02360573 269.70144653 254.65794373 C269.6994223 255.81109573 269.69739807 256.96424774 269.6953125 258.15234375 C269.69626923 259.33719864 269.69722595 260.52205353 269.69821167 261.74281311 C269.69889264 264.25033623 269.69704414 266.75786112 269.69287109 269.26538086 C269.68752644 273.10599732 269.6928165 276.94649658 269.69921875 280.78710938 C269.69855786 283.22135443 269.69727648 285.6555994 269.6953125 288.08984375 C269.69733673 289.24097153 269.69936096 290.3920993 269.70144653 291.57810974 C269.69829437 292.64924515 269.69514221 293.72038055 269.69189453 294.82397461 C269.69070114 296.23603432 269.69070114 296.23603432 269.68948364 297.67662048 C269.57179774 300.00365346 269.19180421 301.95458636 268.5625 304.1875 C268.38977458 305.69352369 268.24860848 307.20337668 268.1328125 308.71484375 C267.09381184 321.34215735 265.48910595 333.00426503 261.24609375 345.0078125 C260.49396609 347.40602526 260.01694889 349.77869943 259.5625 352.25 C258.46852776 358.09054598 256.45197258 363.23066033 254 368.625 C252.87630227 371.40981611 252.26883159 373.49029637 251.75 376.375 C250.73068807 381.42836845 248.4983447 385.6640898 246.09765625 390.1953125 C244.51728643 393.17551361 244.51728643 393.17551361 243.2578125 396.33984375 C241.03241803 401.63597704 238.14930303 406.60249852 235.375 411.625 C234.81619141 412.64271484 234.25738281 413.66042969 233.68164062 414.70898438 C232.31145897 417.20341765 230.9383466 419.69618824 229.5625 422.1875 C228.9025 422.1875 228.2425 422.1875 227.5625 422.1875 C227.41361328 423.01314453 227.41361328 423.01314453 227.26171875 423.85546875 C224.99198062 431.42548922 218.95521998 438.54395583 213.5625 444.1875 C212.9025 444.1875 212.2425 444.1875 211.5625 444.1875 C211.29566406 444.76113281 211.02882813 445.33476563 210.75390625 445.92578125 C207.02735351 453.00012236 201.23032328 458.6725558 195.5546875 464.1953125 C193.45917875 466.21170137 193.45917875 466.21170137 191.5 468.8125 C188.60658328 472.35926888 185.22325019 475.43797551 181.5625 478.1875 C180.9025 478.1875 180.2425 478.1875 179.5625 478.1875 C179.30073975 478.7858667 179.03897949 479.3842334 178.76928711 480.00073242 C177.48793593 482.32261438 176.30006276 483.51364592 174.25390625 485.17578125 C173.59430908 485.71420654 172.93471191 486.25263184 172.25512695 486.80737305 C171.55218506 487.36593994 170.84924316 487.92450684 170.125 488.5 C169.40723389 489.07596924 168.68946777 489.65193848 167.94995117 490.24536133 C160.98126254 495.76843846 153.95245931 501.04312804 145.5625 504.1875 C145.5625 504.8475 145.5625 505.5075 145.5625 506.1875 C109.43066272 526.01869551 109.43066272 526.01869551 96.05419922 530.33325195 C93.64111455 531.16054798 91.3130836 532.10012236 88.9609375 533.0859375 C83.5702494 535.25704174 78.10824005 536.87035023 72.5 538.375 C71.1068457 538.76461914 71.1068457 538.76461914 69.68554688 539.16210938 C64.60296801 540.54243079 59.73762313 541.46529361 54.49560547 541.93505859 C51.9749502 542.26422727 49.87114393 543.14840807 47.5625 544.1875 C41.25749133 545.85359038 34.82094891 546.39088178 28.328125 546.73828125 C27.54562881 546.78060883 26.76313263 546.8229364 25.95692444 546.86654663 C18.08115249 547.26056842 10.21468173 547.33937013 2.33032227 547.31787109 C-0.0031582 547.31249272 -2.336447 547.31787314 -4.66992188 547.32421875 C-12.42665435 547.32807828 -20.15687137 547.17589365 -27.90234375 546.7421875 C-28.61685196 546.70344513 -29.33136017 546.66470276 -30.06752014 546.62478638 C-33.06599111 546.43757434 -35.57162737 546.14279088 -38.4375 545.1875 C-40.72601285 544.87204084 -43.01839915 544.58435811 -45.3125 544.3125 C-52.48615504 543.41426996 -59.41591397 541.91259086 -66.4375 540.1875 C-68.73626612 539.68626528 -71.03672395 539.19561428 -73.33984375 538.71484375 C-76.09437062 538.02236493 -78.74954451 537.10377162 -81.4375 536.1875 C-82.38109375 535.88070312 -83.3246875 535.57390625 -84.296875 535.2578125 C-93.52985598 532.23837818 -102.29630194 528.84445963 -110.9375 524.40234375 C-113.40105689 523.20520907 -115.87521648 522.21485989 -118.4375 521.25 C-122.93241034 519.50822225 -126.85921647 517.23488832 -130.94140625 514.6875 C-133.36997126 513.22808065 -135.82201364 511.97607876 -138.375 510.75 C-143.96562176 508.01246184 -149.46216154 504.94265089 -154.4375 501.1875 C-154.4375 500.5275 -154.4375 499.8675 -154.4375 499.1875 C-154.98921875 498.9296875 -155.5409375 498.671875 -156.109375 498.40625 C-158.78064175 497.00786875 -161.20601909 495.39986695 -163.6875 493.6875 C-164.57953125 493.0790625 -165.4715625 492.470625 -166.390625 491.84375 C-167.40382813 491.02390625 -167.40382813 491.02390625 -168.4375 490.1875 C-168.4375 489.5275 -168.4375 488.8675 -168.4375 488.1875 C-169.14261719 487.9503125 -169.84773438 487.713125 -170.57421875 487.46875 C-173.94036868 485.96247827 -176.40733173 484.03165483 -179.25 481.6875 C-180.22582031 480.8934375 -181.20164062 480.099375 -182.20703125 479.28125 C-182.94308594 478.5903125 -183.67914063 477.899375 -184.4375 477.1875 C-184.4375 476.5275 -184.4375 475.8675 -184.4375 475.1875 C-184.97375 474.960625 -185.51 474.73375 -186.0625 474.5 C-192.40729023 470.99366856 -196.42126072 465.9310475 -200.88671875 460.33984375 C-203.14010304 457.52732905 -205.47903688 454.7983288 -207.84228516 452.07788086 C-216.93063174 441.60992384 -225.212754 431.20398905 -231.84375 418.98828125 C-233.2908697 416.15755854 -233.2908697 416.15755854 -235.4375 414.1875 C-235.4375 413.1975 -235.4375 412.2075 -235.4375 411.1875 C-236.0975 411.1875 -236.7575 411.1875 -237.4375 411.1875 C-240.4375 404.6875 -240.4375 404.6875 -240.4375 400.1875 C-241.0975 400.1875 -241.7575 400.1875 -242.4375 400.1875 C-246.04955023 393.18682532 -249.38974293 386.15235342 -252.3515625 378.8515625 C-253.18848296 376.79839791 -254.08252126 374.76845323 -255 372.75 C-257.18177974 367.34298065 -258.76485021 361.7692639 -260.4375 356.1875 C-261.14482254 353.91635162 -261.85313048 351.64550986 -262.5625 349.375 C-264.96012191 341.53590023 -266.68181217 333.99778646 -267.8671875 325.87890625 C-268.2734926 323.24905476 -268.710014 320.64229582 -269.1953125 318.02734375 C-269.3281665 317.30732178 -269.46102051 316.5872998 -269.59790039 315.84545898 C-269.8546344 314.46763756 -270.11634079 313.09072714 -270.38452148 311.71508789 C-272.4757805 300.4128903 -272.60112757 288.9625306 -272.56787109 277.50439453 C-272.56252296 275.32186893 -272.56784715 273.13955058 -272.57421875 270.95703125 C-272.58722027 246.63666081 -272.58722027 246.63666081 -270.4375 240.1875 C-270.07596236 237.52115988 -269.74187377 234.86028216 -269.4375 232.1875 C-268.57263514 224.59290541 -268.57263514 224.59290541 -267.4375 221.1875 C-267.13263559 218.06263984 -266.92908784 214.93721889 -266.71875 211.8046875 C-266.4375 209.1875 -266.4375 209.1875 -265.4375 208.1875 C-265.13347898 206.61020283 -264.87046059 205.02496472 -264.625 203.4375 C-263.47358811 196.82117794 -261.52133658 190.56158836 -259.4375 184.1875 C-259.20160156 183.42953125 -258.96570313 182.6715625 -258.72265625 181.890625 C-249.21676997 151.96676997 -249.21676997 151.96676997 -241.4375 144.1875 C-240.73461967 142.51894134 -240.03335116 140.84967053 -239.34326172 139.17578125 C-237.73434663 135.64397412 -235.59911528 132.44377987 -233.5 129.1875 C-230.34646506 124.25153227 -227.32028768 119.28685877 -224.4375 114.1875 C-222.64749673 111.33468229 -221.01290273 108.74943586 -218.6015625 106.39453125 C-216.06289649 103.80545851 -213.96167619 100.97088906 -211.8125 98.0625 C-207.1729151 91.90075528 -202.01826419 86.51501943 -196.4375 81.1875 C-194.0262508 78.79485611 -191.6328641 76.38920023 -189.26953125 73.94921875 C-188.26986328 72.92248047 -188.26986328 72.92248047 -187.25 71.875 C-186.57582031 71.17761719 -185.90164063 70.48023438 -185.20703125 69.76171875 C-183.4375 68.1875 -183.4375 68.1875 -181.4375 68.1875 C-181.4375 67.5275 -181.4375 66.8675 -181.4375 66.1875 C-179.7578125 64.6796875 -179.7578125 64.6796875 -177.5625 63.0625 C-176.84320313 62.52367187 -176.12390625 61.98484375 -175.3828125 61.4296875 C-173.4375 60.1875 -173.4375 60.1875 -171.4375 60.1875 C-171.1075 59.1975 -170.7775 58.2075 -170.4375 57.1875 C-168.66015625 55.80078125 -168.66015625 55.80078125 -166.5 54.5 C-165.78972656 54.06300781 -165.07945312 53.62601563 -164.34765625 53.17578125 C-162.4375 52.1875 -162.4375 52.1875 -160.4375 52.1875 C-160.4375 51.5275 -160.4375 50.8675 -160.4375 50.1875 C-159.03564453 49.04589844 -159.03564453 49.04589844 -157.0703125 47.796875 C-156.35520508 47.33788818 -155.64009766 46.87890137 -154.90332031 46.40600586 C-154.13084961 45.92139893 -153.35837891 45.43679199 -152.5625 44.9375 C-151.38059082 44.18835327 -151.38059082 44.18835327 -150.17480469 43.42407227 C-148.61444953 42.43767964 -147.05199674 41.4545962 -145.48730469 40.47509766 C-143.92210488 39.49190759 -142.36849023 38.49025034 -140.8203125 37.48046875 C-132.60587874 32.25994033 -123.5920976 28.38006439 -114.78369141 24.28271484 C-112.92670924 23.41586552 -111.07719147 22.53302756 -109.23046875 21.64453125 C-99.06278287 16.81839463 -88.27170331 13.19485893 -77.4375 10.1875 C-76.60347656 9.94128906 -75.76945313 9.69507813 -74.91015625 9.44140625 C-63.24383215 6.09466498 -51.31208382 4.23825235 -39.3125 2.5625 C-38.44326904 2.43939453 -37.57403809 2.31628906 -36.6784668 2.18945312 C-24.48447168 0.54649184 -12.2966372 -0.00729482 0 0 Z M-199.71386719 89.30273438 C-203.83707613 93.81139911 -207.53062287 98.63994592 -211.18310547 103.53173828 C-212.38394897 105.11681431 -213.63056385 106.66689918 -214.87890625 108.21484375 C-242.82423265 143.06800365 -259.39445027 186.11541459 -266.625 229.875 C-266.79233643 230.88449707 -266.95967285 231.89399414 -267.13208008 232.93408203 C-269.24268136 246.37705562 -269.64316444 259.79790644 -269.625 273.375 C-269.62472809 274.14374451 -269.62445618 274.91248901 -269.62417603 275.70452881 C-269.6053407 287.30618742 -269.25052109 298.70779263 -267.4375 310.1875 C-267.33034668 310.89390625 -267.22319336 311.6003125 -267.11279297 312.328125 C-265.4539307 323.06847342 -263.17998721 333.6734868 -260.4375 344.1875 C-260.23817871 344.95400879 -260.03885742 345.72051758 -259.83349609 346.51025391 C-254.54959488 366.37267858 -246.027129 385.05481386 -236.4375 403.1875 C-236.10991699 403.8160791 -235.78233398 404.4446582 -235.44482422 405.09228516 C-219.08781686 436.26616639 -194.4242222 465.74605961 -166.4375 487.1875 C-165.2602685 488.11699987 -164.0831953 489.04670027 -162.90625 489.9765625 C-152.62735619 497.99148085 -141.75473446 504.74217384 -130.4375 511.1875 C-129.76332031 511.57421875 -129.08914063 511.9609375 -128.39453125 512.359375 C-102.97280427 526.82617221 -74.26528852 536.55144633 -45.4375 541.1875 C-44.6807901 541.31138092 -43.9240802 541.43526184 -43.1444397 541.56289673 C-28.96354865 543.83936894 -15.10236486 544.71461192 -0.75 544.625 C0.24531738 544.62295563 1.24063477 544.62091125 2.26611328 544.61880493 C18.38714075 544.56509613 33.74164747 543.43080592 49.5625 540.1875 C50.89269137 539.94366233 52.22336136 539.70240766 53.5546875 539.46484375 C56.92894185 538.81415036 60.23345551 538.03946516 63.5625 537.1875 C64.65280518 536.91413818 64.65280518 536.91413818 65.76513672 536.63525391 C101.48433871 527.54138883 134.66200152 510.97055144 163.5625 488.1875 C164.55894531 487.40503906 165.55539062 486.62257813 166.58203125 485.81640625 C179.91503626 475.11566832 192.68531823 463.33661836 203.3515625 449.95703125 C204.80026804 448.14230999 206.27363988 446.34694774 207.7734375 444.57421875 C217.74769616 432.76259666 225.89999744 419.58591377 233.5625 406.1875 C233.9322998 405.54119629 234.30209961 404.89489258 234.68310547 404.22900391 C269.43672141 342.75807453 276.34372978 267.08421043 258.046875 199.390625 C256.68449597 194.6104263 255.17418407 189.88904625 253.5625 185.1875 C253.33095215 184.50655273 253.0994043 183.82560547 252.86083984 183.12402344 C241.16417359 149.24573006 222.89498914 117.82033072 198.6171875 91.42578125 C196.68147397 89.31710473 194.80430024 87.16963672 192.9375 85 C187.28626641 78.53031189 181.14277551 72.70239757 174.5625 67.1875 C173.80501465 66.55134766 173.80501465 66.55134766 173.03222656 65.90234375 C128.03480922 28.35656147 70.43615613 4.68842918 11.5625 3.1875 C10.04172852 3.14665283 10.04172852 3.14665283 8.49023438 3.10498047 C-70.31263243 1.31195588 -145.38347044 32.07900288 -199.71386719 89.30273438 Z " fill="#FDFCF8" transform="translate(510.4375,129.8125)"/>
<path d="M0 0 C1.14040741 -0.01007584 2.28081482 -0.02015167 3.45578003 -0.03053284 C7.2259908 -0.05903171 10.9958015 -0.06489042 14.76611328 -0.06811523 C17.38778855 -0.07775472 20.00946218 -0.08784707 22.63113403 -0.09837341 C28.12716272 -0.11754326 33.62308302 -0.12202242 39.11914062 -0.12011719 C45.46156127 -0.11831537 51.80321598 -0.1499655 58.14544284 -0.19734818 C64.25853414 -0.24138286 70.37125928 -0.25207929 76.48450089 -0.25028801 C79.08004002 -0.2538274 81.67558487 -0.26709294 84.2710228 -0.29028511 C87.9026816 -0.31969929 91.5323716 -0.31104935 95.1640625 -0.29296875 C96.76960999 -0.31825653 96.76960999 -0.31825653 98.40759277 -0.34405518 C104.5685844 -0.26615987 108.03019988 0.55178241 112.48771858 4.92002964 C115.10484971 8.1617743 115.09234529 11.42535541 114.71142578 15.43579102 C113.22358892 19.66437998 111.57554222 22.14147188 107.71142578 24.43579102 C104.82488 25.39797294 102.98791505 25.56778403 99.98722839 25.58296204 C99.01573349 25.59011734 98.04423859 25.59727264 97.04330444 25.60464478 C95.44659409 25.60867813 95.44659409 25.60867813 93.81762695 25.61279297 C92.69541245 25.61936417 91.57319794 25.62593536 90.41697693 25.63270569 C86.69611548 25.65244787 82.97529439 25.66410259 79.25439453 25.67407227 C77.98485743 25.67814779 76.71532032 25.68222332 75.40731239 25.68642235 C69.38237567 25.70513411 63.35746343 25.71969991 57.3325054 25.72803432 C50.38383953 25.73780597 43.43549227 25.76412612 36.48693866 25.80453521 C30.46360381 25.83835862 24.44042342 25.85018125 18.41698647 25.85423851 C15.85691478 25.859115 13.29684675 25.870759 10.73683739 25.8892765 C7.15543499 25.91357449 3.57486747 25.91271961 -0.0065918 25.90576172 C-1.06499268 25.91857178 -2.12339355 25.93138184 -3.21386719 25.94458008 C-9.23170779 25.90193852 -12.70780571 25.45270397 -17.28857422 21.43579102 C-19.66159589 18.50906429 -20.24824048 16.75269897 -20.72607422 12.99829102 C-20.10956634 7.97815546 -18.18697377 5.04599608 -14.34957886 1.79115295 C-9.64478176 -0.29205294 -5.09097716 -0.0064421 0 0 Z " fill="#B8C6C1" transform="translate(412.28857421875,496.564208984375)"/>
<path d="M0 0 C3.6578218 2.03993908 5.66946174 3.50419262 8 7 C8.8347092 10.82946738 8.74004561 14.15749637 8 18 C6.35549927 20.36756897 6.35549927 20.36756897 4.15283203 22.66040039 C2.92297577 23.95616501 2.92297577 23.95616501 1.66827393 25.27810669 C0.78774353 26.17633148 -0.09278687 27.07455627 -1 28 C-1.86361145 28.89540497 -2.7272229 29.79080994 -3.61700439 30.71334839 C-6.4373013 33.61790035 -9.27988587 36.49867108 -12.1328125 39.37109375 C-12.64538479 39.88774157 -13.15795708 40.40438938 -13.68606186 40.93669319 C-16.38856299 43.65982423 -19.09416158 46.3798341 -21.80224609 49.09741211 C-24.58224612 51.88856242 -27.35034441 54.69122458 -30.11612129 57.49645901 C-32.26453597 59.67105382 -34.42182352 61.83668153 -36.58156967 64.00001717 C-37.60633504 65.02962728 -38.62774445 66.06258974 -39.64557266 67.09905815 C-50.41271017 78.05139392 -50.41271017 78.05139392 -58.30078125 79.390625 C-65.1003991 78.91531191 -68.64657854 75.46539871 -73.27685547 70.74072266 C-75.40533159 68.59053354 -77.58006707 66.49102222 -79.75390625 64.38671875 C-81.483173 62.69674608 -83.21102232 61.00532188 -84.9375 59.3125 C-85.77909668 58.49281738 -86.62069336 57.67313477 -87.48779297 56.82861328 C-96.42637755 47.93341112 -96.42637755 47.93341112 -97.4375 41 C-96.75880016 36.34605823 -94.39860381 33.49850408 -91.25 30.125 C-87.90732392 28.45366196 -84.59883368 28.18674043 -81 29 C-75.33938984 32.12950876 -71.11587024 36.65355777 -66.625 41.25 C-65.88894531 41.99507813 -65.15289062 42.74015625 -64.39453125 43.5078125 C-62.59169953 45.33405762 -60.79373022 47.16482205 -59 49 C-55.44097469 47.4880024 -53.18296871 45.41466712 -50.47851562 42.67382812 C-49.59079468 41.77950073 -48.70307373 40.88517334 -47.78845215 39.96374512 C-47.31888596 39.48594101 -46.84931976 39.0081369 -46.36552429 38.51585388 C-44.89023068 37.01495262 -43.40870826 35.52045918 -41.92541504 34.02746582 C-38.77797112 30.85720238 -35.63843139 27.67918245 -32.5 24.5 C-28.86229101 20.81505706 -25.22139653 17.13338503 -21.57194519 13.46006775 C-20.11432213 11.98950476 -18.66286712 10.51303562 -17.21154785 9.03625488 C-16.3238269 8.14192749 -15.43610596 7.2476001 -14.52148438 6.32617188 C-13.74301147 5.53722534 -12.96453857 4.74827881 -12.16247559 3.9354248 C-8.25859074 0.44143134 -5.25653431 -0.63078412 0 0 Z " fill="#7EB1AD" transform="translate(488,327)"/>
<path d="M0 0 C0.83150574 -0.00525696 1.66301147 -0.01051392 2.51971436 -0.01593018 C5.26073138 -0.02910419 8.00116485 -0.02040137 10.7421875 -0.01025391 C12.65120556 -0.01227539 14.56022286 -0.01518745 16.46923828 -0.01895142 C20.4671973 -0.02337125 24.46495503 -0.01695465 28.46289062 -0.00292969 C33.58427961 0.01416196 38.70519692 0.00431895 43.8265686 -0.01364708 C47.76769557 -0.02449409 51.70871095 -0.02103435 55.64984131 -0.0132637 C57.53806616 -0.01126424 59.42630119 -0.01371206 61.31451416 -0.02070236 C63.9547403 -0.02833191 66.59420545 -0.01669172 69.234375 0 C70.40187286 -0.00910904 70.40187286 -0.00910904 71.59295654 -0.0184021 C77.54919678 0.05126347 80.6256204 1.55809491 84.9296875 5.51318359 C87.27650648 9.51146778 87.56436879 12.85922433 86.6171875 17.38818359 C84.88986729 20.45401763 82.81263635 22.79045917 79.6171875 24.38818359 C76.80626258 24.50234779 74.01955079 24.55603801 71.20776367 24.56518555 C69.90264076 24.57504234 69.90264076 24.57504234 68.57115173 24.58509827 C65.68415242 24.60485179 62.79720516 24.61649822 59.91015625 24.62646484 C58.92530054 24.63054037 57.94044483 24.6346159 56.92574501 24.63881493 C51.71343825 24.6596841 46.50115788 24.67398234 41.28881836 24.68334961 C35.90164226 24.69441783 30.51487878 24.72882016 25.12784863 24.76852131 C20.98858363 24.7946506 16.84941751 24.80303815 12.71007729 24.80663109 C10.7241366 24.81150633 8.73820061 24.8231469 6.75234032 24.84166908 C3.97282472 24.86598281 1.19438401 24.86510979 -1.58520508 24.8581543 C-2.40565308 24.87096436 -3.22610107 24.88377441 -4.07141113 24.89697266 C-8.04520675 24.86072561 -9.9255072 24.68343035 -13.35063171 22.47209167 C-16.46846528 19.27489652 -17.26112522 17.48336914 -17.7578125 13.01318359 C-17.30796667 8.66467391 -16.18071674 6.71542106 -13.3828125 3.38818359 C-9.12116214 0.07707604 -5.20316143 -0.04059605 0 0 Z " fill="#B8C6C1" transform="translate(409.3828125,442.61181640625)"/>
<path d="M0 0 C4.55431439 2.35255975 7.61537917 5.84395496 9.89453125 10.3515625 C10.57233253 13.57564994 10.57405535 16.69088135 10.5234375 19.9765625 C10.52584946 20.88229004 10.52826141 21.78801758 10.53074646 22.72119141 C10.5297713 24.62732339 10.5164572 26.53348487 10.49145508 28.43945312 C10.45712733 31.34343469 10.47081823 34.24437188 10.49023438 37.1484375 C10.48333537 39.00782535 10.47366249 40.8672054 10.4609375 42.7265625 C10.46589737 43.58717285 10.47085724 44.4477832 10.47596741 45.33447266 C10.36340279 51.14703036 9.26437401 54.58064502 5.89453125 59.3515625 C0.27990748 63.79647299 -3.99390871 64.9441925 -11.10546875 64.3515625 C-16.61793891 62.61188561 -19.99902326 59.90015916 -23.1953125 55.1328125 C-26.45411154 48.75507704 -25.40617881 40.67149958 -25.45556641 33.68115234 C-25.47210017 31.96844876 -25.49935645 30.25581346 -25.53759766 28.54345703 C-25.92859869 10.91441057 -25.92859869 10.91441057 -20.10546875 4.3515625 C-14.17765454 -1.02482714 -7.8358775 -2.41327582 0 0 Z " fill="#6EA4A2" transform="translate(595.10546875,227.6484375)"/>
<path d="M0 0 C5.57383984 1.87150827 9.3966648 5.79332959 12 11 C12.13607315 14.05310615 12.21282633 17.08217993 12.23828125 20.13671875 C12.246353 21.04952103 12.25442474 21.9623233 12.26274109 22.90278625 C12.27658767 24.83873594 12.28730725 26.7747101 12.29516602 28.71069336 C12.31233124 31.65851849 12.35620612 34.60520817 12.40039062 37.55273438 C12.41052185 39.4348876 12.41903661 41.31705035 12.42578125 43.19921875 C12.44328934 44.07551437 12.46079742 44.95181 12.47883606 45.85466003 C12.45814636 51.75193656 11.44223311 55.17264365 8 60 C2.517396 64.25181534 -2.08710893 65.69787281 -9 65 C-14.88229323 63.0000203 -19.23292345 58.53415311 -22 53 C-22.13605037 49.93520743 -22.21281911 46.89434321 -22.23828125 43.828125 C-22.246353 42.91295105 -22.25442474 41.9977771 -22.26274109 41.05487061 C-22.27658629 39.1147247 -22.28730649 37.17455439 -22.29516602 35.234375 C-22.3123515 32.27556752 -22.35623007 29.31788533 -22.40039062 26.359375 C-22.41052001 24.47396655 -22.41903535 22.58854859 -22.42578125 20.703125 C-22.44328934 19.82166809 -22.46079742 18.94021118 -22.47883606 18.03204346 C-22.45947178 12.51205843 -21.68466395 9.37530171 -18 5 C-12.08290425 -0.21267959 -7.77714643 -0.77341788 0 0 Z " fill="#6DA4A1" transform="translate(436,227)"/>
<path d="M0 0 C0 3.9589195 -1.43632316 5.24957821 -3.8125 8.375 C-6.42202894 11.82585248 -8.83856157 15.24987024 -11 19 C-11.66 18.67 -12.32 18.34 -13 18 C-3.8496732 2.5664488 -3.8496732 2.5664488 0 0 Z " fill="#FFFFFF" transform="translate(293,236)"/>
<path d="M0 0 C0 0.33 0 0.66 0 1 C-1.62171239 1.38897161 -3.24754925 1.76078298 -4.875 2.125 C-5.77992188 2.33382812 -6.68484375 2.54265625 -7.6171875 2.7578125 C-8.40351563 2.83773437 -9.18984375 2.91765625 -10 3 C-10.66 2.34 -11.32 1.68 -12 1 C-7.67265609 -1.22923777 -4.71599818 -0.92470553 0 0 Z " fill="#FAFAF2" transform="translate(448,140)"/>
<path d="M0 0 C3.63 0.33 7.26 0.66 11 1 C7.3558226 3.4294516 5.28758728 3.16179575 1 3 C0.67 2.01 0.34 1.02 0 0 Z " fill="#F4F7ED" transform="translate(462,670)"/>
<path d="M0 0 C0.66 0.33 1.32 0.66 2 1 C-2.455 4.465 -2.455 4.465 -7 8 C-7.66 7.67 -8.32 7.34 -9 7 C-8.360625 6.731875 -7.72125 6.46375 -7.0625 6.1875 C-4.66868314 5.11332248 -4.66868314 5.11332248 -4 2 C-2.0625 0.75 -2.0625 0.75 0 0 Z " fill="#FFFFFD" transform="translate(344,185)"/>
<path d="M0 0 C3.3 0.33 6.6 0.66 10 1 C8 3 8 3 5 3.3125 C4.01 3.209375 3.02 3.10625 2 3 C1.34 2.01 0.68 1.02 0 0 Z " fill="#F7F9F1" transform="translate(450,668)"/>
<path d="M0 0 C0.66 0.66 1.32 1.32 2 2 C-0.8125 3.5625 -0.8125 3.5625 -4 5 C-4.99 4.67 -5.98 4.34 -7 4 C-4.61426621 2.10786631 -2.92824652 0.97608217 0 0 Z " fill="#FAFBF0" transform="translate(402,153)"/>
</svg>
